<mxfile host="app.diagrams.net" modified="2023-05-13T07:02:42.982Z" agent="5.0 (Macintosh; Intel Mac OS X 10_15_7) AppleWebKit/537.36 (KHTML, like Gecko) Chrome/113.0.0.0 Safari/537.36" etag="CbD1vuKgpA-KP0mLPn68" version="17.5.0" type="github">
  <diagram id="KJXGVbv00iJfjYYkEjEt" name="Page-1">
    <mxGraphModel dx="881" dy="571" grid="1" gridSize="10" guides="1" tooltips="1" connect="1" arrows="1" fold="1" page="1" pageScale="1" pageWidth="1169" pageHeight="827" math="0" shadow="0">
      <root>
        <mxCell id="0" />
        <mxCell id="1" parent="0" />
        <mxCell id="LjNGfICRgHY4B3SJ5nqZ-1" value="Actor" style="shape=umlActor;verticalLabelPosition=bottom;verticalAlign=top;html=1;" vertex="1" parent="1">
          <mxGeometry x="120" y="220" width="30" height="60" as="geometry" />
        </mxCell>
        <mxCell id="LjNGfICRgHY4B3SJ5nqZ-2" value="게시판 서비스" style="shape=umlFrame;whiteSpace=wrap;html=1;width=90;height=40;" vertex="1" parent="1">
          <mxGeometry x="200" y="100" width="550" height="400" as="geometry" />
        </mxCell>
        <mxCell id="LjNGfICRgHY4B3SJ5nqZ-27" value="" style="edgeStyle=none;rounded=0;orthogonalLoop=1;jettySize=auto;html=1;endArrow=none;endFill=0;strokeColor=default;" edge="1" parent="1" source="LjNGfICRgHY4B3SJ5nqZ-3">
          <mxGeometry relative="1" as="geometry">
            <mxPoint x="150" y="240" as="targetPoint" />
          </mxGeometry>
        </mxCell>
        <mxCell id="LjNGfICRgHY4B3SJ5nqZ-3" value="회원 가입" style="rounded=1;whiteSpace=wrap;html=1;arcSize=40;fontColor=#000000;fillColor=#ffffc0;strokeColor=#ff0000;" vertex="1" parent="1">
          <mxGeometry x="240" y="220" width="120" height="40" as="geometry" />
        </mxCell>
        <mxCell id="LjNGfICRgHY4B3SJ5nqZ-31" style="edgeStyle=none;rounded=0;orthogonalLoop=1;jettySize=auto;html=1;endArrow=none;endFill=0;strokeColor=default;" edge="1" parent="1" source="LjNGfICRgHY4B3SJ5nqZ-5">
          <mxGeometry relative="1" as="geometry">
            <mxPoint x="150" y="240" as="targetPoint" />
          </mxGeometry>
        </mxCell>
        <mxCell id="LjNGfICRgHY4B3SJ5nqZ-38" style="edgeStyle=none;rounded=0;orthogonalLoop=1;jettySize=auto;html=1;entryX=0.5;entryY=1;entryDx=0;entryDy=0;dashed=1;startArrow=none;startFill=0;endArrow=classic;endFill=1;strokeColor=default;exitX=1;exitY=0.5;exitDx=0;exitDy=0;" edge="1" parent="1" source="LjNGfICRgHY4B3SJ5nqZ-5" target="LjNGfICRgHY4B3SJ5nqZ-7">
          <mxGeometry relative="1" as="geometry" />
        </mxCell>
        <mxCell id="LjNGfICRgHY4B3SJ5nqZ-5" value="게시판 보기" style="rounded=1;whiteSpace=wrap;html=1;arcSize=40;fontColor=#000000;fillColor=#ffffc0;strokeColor=#ff0000;" vertex="1" parent="1">
          <mxGeometry x="240" y="290" width="120" height="40" as="geometry" />
        </mxCell>
        <mxCell id="LjNGfICRgHY4B3SJ5nqZ-32" style="edgeStyle=none;rounded=0;orthogonalLoop=1;jettySize=auto;html=1;endArrow=none;endFill=0;strokeColor=default;" edge="1" parent="1" source="LjNGfICRgHY4B3SJ5nqZ-6">
          <mxGeometry relative="1" as="geometry">
            <mxPoint x="150" y="240" as="targetPoint" />
          </mxGeometry>
        </mxCell>
        <mxCell id="LjNGfICRgHY4B3SJ5nqZ-41" style="edgeStyle=none;rounded=0;orthogonalLoop=1;jettySize=auto;html=1;dashed=1;startArrow=none;startFill=0;endArrow=classic;endFill=1;strokeColor=default;exitX=1;exitY=0.5;exitDx=0;exitDy=0;entryX=0.5;entryY=1;entryDx=0;entryDy=0;" edge="1" parent="1" source="LjNGfICRgHY4B3SJ5nqZ-6" target="LjNGfICRgHY4B3SJ5nqZ-7">
          <mxGeometry relative="1" as="geometry" />
        </mxCell>
        <mxCell id="LjNGfICRgHY4B3SJ5nqZ-6" value="게시글 보기" style="rounded=1;whiteSpace=wrap;html=1;arcSize=40;fontColor=#000000;fillColor=#ffffc0;strokeColor=#ff0000;" vertex="1" parent="1">
          <mxGeometry x="240" y="400" width="120" height="40" as="geometry" />
        </mxCell>
        <mxCell id="LjNGfICRgHY4B3SJ5nqZ-30" style="edgeStyle=none;rounded=0;orthogonalLoop=1;jettySize=auto;html=1;endArrow=none;endFill=0;strokeColor=default;" edge="1" parent="1" source="LjNGfICRgHY4B3SJ5nqZ-7">
          <mxGeometry relative="1" as="geometry">
            <mxPoint x="150" y="240" as="targetPoint" />
          </mxGeometry>
        </mxCell>
        <mxCell id="LjNGfICRgHY4B3SJ5nqZ-33" value="&amp;lt;&amp;lt;extend&amp;gt;&amp;gt;" style="edgeStyle=none;rounded=0;orthogonalLoop=1;jettySize=auto;html=1;endArrow=none;endFill=0;strokeColor=default;dashed=1;startArrow=classicThin;startFill=1;" edge="1" parent="1" source="LjNGfICRgHY4B3SJ5nqZ-7" target="LjNGfICRgHY4B3SJ5nqZ-9">
          <mxGeometry relative="1" as="geometry" />
        </mxCell>
        <mxCell id="LjNGfICRgHY4B3SJ5nqZ-34" value="&amp;lt;&amp;lt;include&amp;gt;&amp;gt;" style="edgeStyle=none;rounded=0;orthogonalLoop=1;jettySize=auto;html=1;entryX=0;entryY=0.5;entryDx=0;entryDy=0;endArrow=openThin;endFill=0;strokeColor=default;dashed=1;" edge="1" parent="1" source="LjNGfICRgHY4B3SJ5nqZ-7" target="LjNGfICRgHY4B3SJ5nqZ-8">
          <mxGeometry relative="1" as="geometry" />
        </mxCell>
        <mxCell id="LjNGfICRgHY4B3SJ5nqZ-7" value="회원 로그인" style="rounded=1;whiteSpace=wrap;html=1;arcSize=40;fontColor=#000000;fillColor=#ffffc0;strokeColor=#ff0000;" vertex="1" parent="1">
          <mxGeometry x="370" y="130" width="120" height="40" as="geometry" />
        </mxCell>
        <mxCell id="LjNGfICRgHY4B3SJ5nqZ-212" style="edgeStyle=none;rounded=0;orthogonalLoop=1;jettySize=auto;html=1;startArrow=none;startFill=0;endArrow=none;endFill=0;strokeColor=default;" edge="1" parent="1" source="LjNGfICRgHY4B3SJ5nqZ-8" target="LjNGfICRgHY4B3SJ5nqZ-210">
          <mxGeometry relative="1" as="geometry" />
        </mxCell>
        <mxCell id="LjNGfICRgHY4B3SJ5nqZ-8" value="인증" style="rounded=1;whiteSpace=wrap;html=1;arcSize=40;fontColor=#000000;fillColor=#ffffc0;strokeColor=#ff0000;" vertex="1" parent="1">
          <mxGeometry x="600" y="110" width="120" height="40" as="geometry" />
        </mxCell>
        <mxCell id="LjNGfICRgHY4B3SJ5nqZ-9" value="로그인 실패" style="rounded=1;whiteSpace=wrap;html=1;arcSize=40;fontColor=#000000;fillColor=#ffffc0;strokeColor=#ff0000;" vertex="1" parent="1">
          <mxGeometry x="600" y="180" width="120" height="40" as="geometry" />
        </mxCell>
        <mxCell id="LjNGfICRgHY4B3SJ5nqZ-42" style="edgeStyle=none;rounded=0;orthogonalLoop=1;jettySize=auto;html=1;dashed=1;startArrow=none;startFill=0;endArrow=classic;endFill=1;strokeColor=default;" edge="1" parent="1" source="LjNGfICRgHY4B3SJ5nqZ-10">
          <mxGeometry relative="1" as="geometry">
            <mxPoint x="360" y="310" as="targetPoint" />
          </mxGeometry>
        </mxCell>
        <mxCell id="LjNGfICRgHY4B3SJ5nqZ-10" value="게시판 정렬" style="rounded=1;whiteSpace=wrap;html=1;arcSize=40;fontColor=#000000;fillColor=#ffffc0;strokeColor=#ff0000;" vertex="1" parent="1">
          <mxGeometry x="470" y="240" width="120" height="40" as="geometry" />
        </mxCell>
        <mxCell id="LjNGfICRgHY4B3SJ5nqZ-43" style="edgeStyle=none;rounded=0;orthogonalLoop=1;jettySize=auto;html=1;dashed=1;startArrow=none;startFill=0;endArrow=classic;endFill=1;strokeColor=default;" edge="1" parent="1" source="LjNGfICRgHY4B3SJ5nqZ-11" target="LjNGfICRgHY4B3SJ5nqZ-5">
          <mxGeometry relative="1" as="geometry" />
        </mxCell>
        <mxCell id="LjNGfICRgHY4B3SJ5nqZ-11" value="게시판 검색" style="rounded=1;whiteSpace=wrap;html=1;arcSize=40;fontColor=#000000;fillColor=#ffffc0;strokeColor=#ff0000;" vertex="1" parent="1">
          <mxGeometry x="470" y="310" width="120" height="40" as="geometry" />
        </mxCell>
        <mxCell id="LjNGfICRgHY4B3SJ5nqZ-44" style="edgeStyle=none;rounded=0;orthogonalLoop=1;jettySize=auto;html=1;entryX=1;entryY=0.5;entryDx=0;entryDy=0;dashed=1;startArrow=none;startFill=0;endArrow=classic;endFill=1;strokeColor=default;" edge="1" parent="1" source="LjNGfICRgHY4B3SJ5nqZ-12" target="LjNGfICRgHY4B3SJ5nqZ-6">
          <mxGeometry relative="1" as="geometry" />
        </mxCell>
        <mxCell id="LjNGfICRgHY4B3SJ5nqZ-12" value="게시글 쓰기, 수 정 삭제" style="rounded=1;whiteSpace=wrap;html=1;arcSize=40;fontColor=#000000;fillColor=#ffffc0;strokeColor=#ff0000;" vertex="1" parent="1">
          <mxGeometry x="470" y="370" width="120" height="40" as="geometry" />
        </mxCell>
        <mxCell id="LjNGfICRgHY4B3SJ5nqZ-45" style="edgeStyle=none;rounded=0;orthogonalLoop=1;jettySize=auto;html=1;entryX=1;entryY=0.5;entryDx=0;entryDy=0;dashed=1;startArrow=none;startFill=0;endArrow=classic;endFill=1;strokeColor=default;" edge="1" parent="1" source="LjNGfICRgHY4B3SJ5nqZ-13" target="LjNGfICRgHY4B3SJ5nqZ-6">
          <mxGeometry relative="1" as="geometry" />
        </mxCell>
        <mxCell id="LjNGfICRgHY4B3SJ5nqZ-13" value="댓글 보기, 쓰기, 수정, 삭제" style="rounded=1;whiteSpace=wrap;html=1;arcSize=40;fontColor=#000000;fillColor=#ffffc0;strokeColor=#ff0000;" vertex="1" parent="1">
          <mxGeometry x="470" y="440" width="150" height="40" as="geometry" />
        </mxCell>
        <mxCell id="LjNGfICRgHY4B3SJ5nqZ-213" style="edgeStyle=none;rounded=0;orthogonalLoop=1;jettySize=auto;html=1;entryX=1;entryY=0.5;entryDx=0;entryDy=0;startArrow=none;startFill=0;endArrow=classic;endFill=1;strokeColor=default;" edge="1" parent="1" source="LjNGfICRgHY4B3SJ5nqZ-209" target="LjNGfICRgHY4B3SJ5nqZ-5">
          <mxGeometry relative="1" as="geometry" />
        </mxCell>
        <mxCell id="LjNGfICRgHY4B3SJ5nqZ-209" value="" style="shape=table;startSize=0;container=1;collapsible=0;childLayout=tableLayout;" vertex="1" parent="1">
          <mxGeometry x="830" y="200" width="160" height="130" as="geometry" />
        </mxCell>
        <mxCell id="LjNGfICRgHY4B3SJ5nqZ-210" value="" style="shape=tableRow;horizontal=0;startSize=0;swimlaneHead=0;swimlaneBody=0;top=0;left=0;bottom=0;right=0;collapsible=0;dropTarget=0;fillColor=none;points=[[0,0.5],[1,0.5]];portConstraint=eastwest;" vertex="1" parent="LjNGfICRgHY4B3SJ5nqZ-209">
          <mxGeometry width="160" height="130" as="geometry" />
        </mxCell>
        <mxCell id="LjNGfICRgHY4B3SJ5nqZ-211" value="db" style="shape=partialRectangle;html=1;whiteSpace=wrap;connectable=0;overflow=hidden;fillColor=none;top=0;left=0;bottom=0;right=0;pointerEvents=1;" vertex="1" parent="LjNGfICRgHY4B3SJ5nqZ-210">
          <mxGeometry width="160" height="130" as="geometry">
            <mxRectangle width="160" height="130" as="alternateBounds" />
          </mxGeometry>
        </mxCell>
        <mxCell id="LjNGfICRgHY4B3SJ5nqZ-214" style="edgeStyle=none;rounded=0;orthogonalLoop=1;jettySize=auto;html=1;exitX=-0.004;exitY=0.546;exitDx=0;exitDy=0;startArrow=none;startFill=0;endArrow=classic;endFill=1;strokeColor=default;exitPerimeter=0;" edge="1" parent="1" source="LjNGfICRgHY4B3SJ5nqZ-210">
          <mxGeometry relative="1" as="geometry">
            <mxPoint x="360" y="420" as="targetPoint" />
            <Array as="points">
              <mxPoint x="640" y="420" />
            </Array>
          </mxGeometry>
        </mxCell>
      </root>
    </mxGraphModel>
  </diagram>
</mxfile>
